<svg viewBox="0 0 539 231" fill="currentColor" xmlns="http://www.w3.org/2000/svg">
    <g>
        <path d="M407.699 99.0401H407.689C405.699 92.1701 402.479 85.8301 398.289 80.2601C394.959 75.8201 391.019 71.8701 386.579 68.5401C376.789 61.1801 364.619 56.8301 351.429 56.8301C319.089 56.8301 292.859 83.0501 292.859 115.4C292.859 147.75 319.089 173.97 351.429 173.97C359.129 173.97 366.489 172.49 373.219 169.78C378.019 167.86 382.509 165.32 386.579 162.26V173.97C399.519 173.97 410.009 163.48 410.009 150.54V115.4C410.009 109.72 409.199 104.23 407.699 99.0401ZM384.539 127.21C381.009 137.12 373.149 144.97 363.239 148.5C359.549 149.82 355.569 150.54 351.429 150.54C332.029 150.54 316.289 134.81 316.289 115.4C316.289 95.9901 332.029 80.2601 351.429 80.2601C370.829 80.2601 386.579 95.9901 386.579 115.4C386.579 119.54 385.859 123.52 384.539 127.21Z"
        />
        <path d="M58.57 56.8304C45.38 56.8304 33.21 61.1804 23.42 68.5404V56.8304C23.42 43.8904 12.93 33.4004 0 33.4004V115.4C0 134.56 9.2 151.57 23.42 162.26C33.21 169.62 45.38 173.97 58.57 173.97C90.92 173.97 117.14 147.75 117.14 115.4C117.14 83.0504 90.92 56.8304 58.57 56.8304ZM58.57 150.54C39.16 150.54 23.42 134.81 23.42 115.4C23.42 95.9904 39.16 80.2604 58.57 80.2604C77.98 80.2604 93.71 95.9904 93.71 115.4C93.71 134.81 77.98 150.54 58.57 150.54Z"
        />
        <path d="M222.569 68.5301C212.779 61.1801 200.619 56.8301 187.429 56.8301C155.079 56.8301 128.859 83.0501 128.859 115.4C128.859 147.75 155.079 173.97 187.429 173.97C195.129 173.97 202.479 172.49 209.209 169.79C214.009 167.87 218.499 165.33 222.569 162.27V173.97C235.509 173.97 245.999 163.48 245.999 150.54V115.4C245.999 96.2301 236.799 79.2201 222.569 68.5301ZM220.529 127.21C216.999 137.12 209.139 144.98 199.229 148.51C195.539 149.82 191.569 150.54 187.429 150.54C168.019 150.54 152.289 134.81 152.289 115.4C152.289 95.9901 168.019 80.2601 187.429 80.2601C206.839 80.2601 222.569 95.9901 222.569 115.4C222.569 119.54 221.849 123.52 220.529 127.21Z"
        />
        <path d="M281.151 56.8304V173.97H257.721V33.4004C270.661 33.4004 281.151 43.8904 281.151 56.8304Z"
        />
        <path d="M538.871 56.8301V115.4C538.871 129.6 533.811 142.62 525.401 152.76C522.471 156.3 519.131 159.49 515.441 162.26C508.641 167.37 500.681 171.03 492.041 172.79C488.251 173.56 484.321 173.97 480.301 173.97C467.121 173.97 454.941 169.62 445.151 162.26C430.921 151.57 421.721 134.56 421.721 115.4V56.8301C431.101 56.8301 439.191 62.3401 442.931 70.3001C444.361 73.3201 445.151 76.7001 445.151 80.2601V115.4C445.151 134.81 460.891 150.54 480.301 150.54C499.711 150.54 515.441 134.81 515.441 115.4V80.2601C515.441 76.7001 516.231 73.3201 517.661 70.3001C521.401 62.3401 529.491 56.8301 538.871 56.8301Z"
        />
        <path d="M538.87 173.97C538.87 183.77 532.85 192.17 524.3 195.67L489.94 211.19L447.23 230.48C445.89 227.54 445.15 224.27 445.15 220.83C445.15 211.45 450.66 203.35 458.63 199.61L459.46 199.24L494.08 183.61H494.09L515.44 173.97H515.45L536.79 164.34C538.13 167.28 538.87 170.53 538.87 173.97Z"
        />
    </g>
</svg>
